<?xml version="1.0" encoding="iso-8859-1"?>
<!-- Generator: Adobe Illustrator 19.0.0, SVG Export Plug-In . SVG Version: 6.00 Build 0)  -->
<svg version="1.1" id="Capa_1" xmlns="http://www.w3.org/2000/svg" xmlns:xlink="http://www.w3.org/1999/xlink" x="0px" y="0px"
	 viewBox="0 0 512 512" style="enable-background:new 0 0 512 512;" xml:space="preserve">
<g>
	<g>
		<g>
			<path d="M384,224V80c-0.053-44.161-35.839-79.947-80-80H0v32h304c26.51,0,48,21.49,48,48s-21.49,48-48,48H192
				c-35.346,0-64,28.654-64,64v64H0v32h128v144c0.053,44.161,35.839,79.947,80,80h304v-32H208c-26.51,0-48-21.49-48-48V247.104
				c9.686,5.759,20.732,8.83,32,8.896h320v-32H384z M352,224H192c-17.673,0-32-14.327-32-32s14.327-32,32-32h112
				c17.368-0.059,34.234-5.827,48-16.416V224z"/>
			<rect y="64" width="32" height="32"/>
			<rect y="128" width="32" height="32"/>
			<rect y="192" width="32" height="32"/>
			<rect x="480" y="416" width="32" height="32"/>
			<rect x="480" y="352" width="32" height="32"/>
			<rect x="480" y="288" width="32" height="32"/>
		</g>
	</g>
</g>
<g>
</g>
<g>
</g>
<g>
</g>
<g>
</g>
<g>
</g>
<g>
</g>
<g>
</g>
<g>
</g>
<g>
</g>
<g>
</g>
<g>
</g>
<g>
</g>
<g>
</g>
<g>
</g>
<g>
</g>
</svg>
